<svg width="124" height="79" viewBox="0 0 124 79" fill="none" xmlns="http://www.w3.org/2000/svg">
<path d="M6.13094 64.4922C7.37882 55.9685 9.7055 48.5712 13.111 42.3003C16.5165 36.0294 20.9051 31.175 26.2769 27.7372C31.6487 24.2993 37.8859 22.5477 44.9885 22.4822C49.0344 22.4449 52.8182 23.1539 56.34 24.609C59.8618 26.0641 63.741 28.7555 67.9778 32.6834C69.8314 34.4018 71.4439 35.8125 72.8153 36.9155C74.2317 38.0182 76.0862 38.5589 78.3788 38.5378C81.2109 38.5117 83.7946 37.4135 86.1298 35.2433C88.5101 33.0726 90.154 29.5039 91.0616 24.5369L118.034 24.2884C116.698 32.7302 114.237 40.0875 110.652 46.36C107.111 52.6322 102.632 57.508 97.2147 60.9876C91.8421 64.4668 85.7393 66.2379 78.9064 66.3009C74.456 66.3419 70.4491 65.5524 66.8856 63.9324C63.3221 62.3123 59.5761 59.7023 55.6474 56.1022C53.529 54.1383 51.8728 52.666 50.6787 51.6853C49.5296 50.7042 47.8088 50.2242 45.5161 50.2453C42.6841 50.2714 40.1004 51.3696 37.7651 53.5398C35.4298 55.71 33.8758 59.278 33.103 64.2437L6.13094 64.4922Z" fill="white"/>
<g filter="url(#filter0_bd_117_9)">
<path d="M8.71029 14.5455L9.68188 8.81818H32.4376L31.466 14.5455H23.591L20.216 35H13.2103L16.5853 14.5455H8.71029ZM28.8293 35L32.102 15.3636H38.9543L38.3406 19.0966H38.5452C39.1332 17.7159 39.8704 16.706 40.7568 16.0668C41.6432 15.4276 42.6105 15.108 43.6588 15.108C43.9656 15.108 44.2596 15.1335 44.5409 15.1847C44.8307 15.2273 45.1162 15.2869 45.3974 15.3636L44.3747 21.3977C44.0423 21.2699 43.629 21.1804 43.1346 21.1293C42.6403 21.0696 42.2014 21.0398 41.8179 21.0398C41.1361 21.0398 40.4969 21.1974 39.9003 21.5128C39.3122 21.8196 38.8094 22.2543 38.3918 22.8168C37.9827 23.3707 37.7099 24.0227 37.5736 24.7727L35.8861 35H28.8293ZM44.4386 35L47.7114 15.3636H54.7682L51.4954 35H44.4386ZM51.5466 13.3182C50.592 13.3182 49.8207 13.0028 49.2327 12.3722C48.6446 11.733 48.4273 10.9744 48.5807 10.0966C48.7341 9.2017 49.2028 8.44318 49.9869 7.82102C50.771 7.19034 51.6403 6.875 52.5949 6.875C53.5579 6.875 54.325 7.19034 54.896 7.82102C55.467 8.44318 55.6801 9.2017 55.5352 10.0966C55.3989 10.9744 54.9386 11.733 54.1545 12.3722C53.379 13.0028 52.5096 13.3182 51.5466 13.3182ZM53.9148 42.3636L58.4404 15.3636H65.4461L64.8836 18.7898H65.037C65.3949 18.125 65.8637 17.5156 66.4432 16.9616C67.0313 16.3991 67.7217 15.9517 68.5143 15.6193C69.3154 15.2784 70.2018 15.108 71.1734 15.108C72.4688 15.108 73.6407 15.4531 74.689 16.1435C75.7373 16.8338 76.5086 17.9205 77.0029 19.4034C77.4972 20.8864 77.5484 22.8125 77.1563 25.1818C76.7813 27.4489 76.1123 29.3281 75.1492 30.8196C74.1947 32.3111 73.0697 33.4233 71.7742 34.1562C70.4873 34.8892 69.1449 35.2557 67.7472 35.2557C66.8268 35.2557 66.0299 35.1065 65.3566 34.8082C64.6833 34.5014 64.1421 34.0881 63.733 33.5682C63.3239 33.0398 63.0427 32.4432 62.8893 31.7784H62.7359L60.9972 42.3636H53.9148ZM63.7074 25.1818C63.554 26.1364 63.5413 26.9631 63.6691 27.6619C63.8055 28.3523 64.0739 28.8892 64.4745 29.2727C64.8836 29.6477 65.412 29.8352 66.0597 29.8352C66.7074 29.8352 67.287 29.652 67.7984 29.2855C68.3097 28.9105 68.7444 28.3778 69.1023 27.6875C69.4603 26.9886 69.7245 26.1534 69.8949 25.1818C70.0484 24.2102 70.0611 23.3793 69.9333 22.6889C69.8055 21.9901 69.5455 21.4574 69.1535 21.0909C68.7614 20.7159 68.2415 20.5284 67.5938 20.5284C66.9461 20.5284 66.3538 20.7159 65.8168 21.0909C65.2884 21.4574 64.841 21.9901 64.4745 22.6889C64.1165 23.3793 63.8609 24.2102 63.7074 25.1818Z" fill="#46BFDA"/>
</g>
<g filter="url(#filter1_bd_117_9)">
<path d="M41.5568 43.8182L43.858 62.2784H44.0625L52.5 43.8182H60.5284L47.5398 70H37.8239L33.5284 43.8182H41.5568ZM58.8058 70L62.0785 50.3636H69.1353L65.8626 70H58.8058ZM65.9137 48.3182C64.9592 48.3182 64.1879 48.0028 63.5998 47.3722C63.0117 46.733 62.7944 45.9744 62.9478 45.0966C63.1012 44.2017 63.57 43.4432 64.354 42.821C65.1381 42.1903 66.0075 41.875 66.962 41.875C67.9251 41.875 68.6921 42.1903 69.2631 42.821C69.8342 43.4432 70.0472 44.2017 69.9023 45.0966C69.766 45.9744 69.3058 46.733 68.5217 47.3722C67.7461 48.0028 66.8768 48.3182 65.9137 48.3182ZM69.3558 70L73.7024 43.8182H80.7592L79.1229 53.7898H79.2251C79.5831 53.125 80.0561 52.5156 80.6442 51.9616C81.2322 51.3991 81.9226 50.9517 82.7152 50.6193C83.5078 50.2784 84.3899 50.108 85.3615 50.108C86.657 50.108 87.8288 50.4531 88.8771 51.1435C89.9339 51.8338 90.7053 52.9205 91.1911 54.4034C91.6854 55.8864 91.7365 57.8125 91.3445 60.1818C90.9695 62.4489 90.3047 64.3281 89.3501 65.8196C88.3956 67.3111 87.2706 68.4233 85.9751 69.1562C84.6797 69.8892 83.3331 70.2557 81.9354 70.2557C81.0149 70.2557 80.218 70.1065 79.5447 69.8082C78.88 69.5014 78.3388 69.0881 77.9212 68.5682C77.5121 68.0398 77.2308 67.4432 77.0774 66.7784H76.8729L76.3615 70H69.3558ZM77.8956 60.1818C77.7422 61.1364 77.7337 61.9631 77.87 62.6619C78.0064 63.3523 78.2749 63.8892 78.6754 64.2727C79.076 64.6477 79.6001 64.8352 80.2479 64.8352C80.8956 64.8352 81.4794 64.652 81.9993 64.2855C82.5192 63.9105 82.9581 63.3778 83.3161 62.6875C83.674 61.9886 83.9297 61.1534 84.0831 60.1818C84.2365 59.2102 84.2493 58.3793 84.1214 57.6889C83.9936 56.9901 83.7337 56.4574 83.3416 56.0909C82.9496 55.7159 82.4297 55.5284 81.782 55.5284C81.1342 55.5284 80.5462 55.7159 80.0178 56.0909C79.4893 56.4574 79.0419 56.9901 78.6754 57.6889C78.3089 58.3793 78.049 59.2102 77.8956 60.1818ZM102.019 70.358C99.9226 70.358 98.1839 69.9574 96.8033 69.1562C95.4226 68.3466 94.451 67.1875 93.8885 65.679C93.326 64.1619 93.2237 62.3466 93.5817 60.233C93.9226 58.2045 94.6257 56.4318 95.6911 54.9148C96.7649 53.3977 98.1158 52.2173 99.7436 51.3736C101.38 50.5298 103.212 50.108 105.241 50.108C106.724 50.108 108.023 50.3381 109.14 50.7983C110.265 51.2585 111.181 51.9276 111.888 52.8054C112.596 53.6832 113.073 54.7443 113.32 55.9886C113.576 57.2244 113.576 58.6222 113.32 60.1818L113.065 61.8182H95.5249L96.1385 57.9318H107.184C107.269 57.3693 107.214 56.875 107.018 56.4489C106.83 56.0142 106.528 55.6776 106.11 55.4389C105.701 55.1918 105.207 55.0682 104.627 55.0682C104.048 55.0682 103.502 55.1918 102.991 55.4389C102.488 55.6861 102.058 56.0312 101.7 56.4744C101.35 56.9176 101.116 57.4375 100.996 58.0341L100.229 62.125C100.127 62.7557 100.165 63.3182 100.344 63.8125C100.523 64.3068 100.835 64.6946 101.278 64.9759C101.721 65.2571 102.292 65.3977 102.991 65.3977C103.468 65.3977 103.92 65.3338 104.346 65.206C104.781 65.0696 105.164 64.8736 105.496 64.6179C105.837 64.3537 106.11 64.0341 106.315 63.6591H112.758C112.298 65.0227 111.569 66.2074 110.572 67.2131C109.583 68.2102 108.364 68.9858 106.915 69.5398C105.475 70.0852 103.843 70.358 102.019 70.358Z" fill="#46BFDA"/>
</g>
<defs>
<filter id="filter0_bd_117_9" x="4.71027" y="2.875" width="77.0341" height="47.4886" filterUnits="userSpaceOnUse" color-interpolation-filters="sRGB">
<feFlood flood-opacity="0" result="BackgroundImageFix"/>
<feGaussianBlur in="BackgroundImageFix" stdDeviation="2"/>
<feComposite in2="SourceAlpha" operator="in" result="effect1_backgroundBlur_117_9"/>
<feColorMatrix in="SourceAlpha" type="matrix" values="0 0 0 0 0 0 0 0 0 0 0 0 0 0 0 0 0 0 127 0" result="hardAlpha"/>
<feOffset dy="4"/>
<feGaussianBlur stdDeviation="2"/>
<feComposite in2="hardAlpha" operator="out"/>
<feColorMatrix type="matrix" values="0 0 0 0 0 0 0 0 0 0 0 0 0 0 0 0 0 0 0.25 0"/>
<feBlend mode="normal" in2="effect1_backgroundBlur_117_9" result="effect2_dropShadow_117_9"/>
<feBlend mode="normal" in="SourceGraphic" in2="effect2_dropShadow_117_9" result="shape"/>
</filter>
<filter id="filter1_bd_117_9" x="29.5284" y="37.875" width="88.1755" height="40.483" filterUnits="userSpaceOnUse" color-interpolation-filters="sRGB">
<feFlood flood-opacity="0" result="BackgroundImageFix"/>
<feGaussianBlur in="BackgroundImageFix" stdDeviation="2"/>
<feComposite in2="SourceAlpha" operator="in" result="effect1_backgroundBlur_117_9"/>
<feColorMatrix in="SourceAlpha" type="matrix" values="0 0 0 0 0 0 0 0 0 0 0 0 0 0 0 0 0 0 127 0" result="hardAlpha"/>
<feOffset dy="4"/>
<feGaussianBlur stdDeviation="2"/>
<feComposite in2="hardAlpha" operator="out"/>
<feColorMatrix type="matrix" values="0 0 0 0 0 0 0 0 0 0 0 0 0 0 0 0 0 0 0.25 0"/>
<feBlend mode="normal" in2="effect1_backgroundBlur_117_9" result="effect2_dropShadow_117_9"/>
<feBlend mode="normal" in="SourceGraphic" in2="effect2_dropShadow_117_9" result="shape"/>
</filter>
</defs>
</svg>
