<svg width="180" height="180" viewBox="0 0 150 150" fill="none" xmlns="http://www.w3.org/2000/svg">
<path d="M150 75C150 116.421 116.421 150 75 150C33.5786 150 0 116.421 0 75C0 33.5786 33.5786 0 75 0C116.421 0 150 33.5786 150 75Z" fill="#D9EFFF"/>
<path d="M117.304 28.7799C116.029 34.9264 116.222 33.9634 108.956 36.3235C102.36 37.4093 95.6477 38.8206 94.1022 29.4318C94.207 21.8607 96.978 21.0554 102.472 22.3626C107.828 26.0329 115.759 19.3911 117.304 28.7799Z" fill="white"/>
<path d="M82 35.7256C77.3874 45.6105 78.097 44.06 62.6624 45.9982C49.002 45.9982 35 46.5083 35 30.4516C37.7242 17.8738 43.5787 17.2923 54.2232 20.9749C63.8033 28.5542 82 19.6689 82 35.7256Z" fill="white"/>
<path d="M102.5 95C102.5 129.636 103.876 121.802 62.6903 121.802C21.5043 121.802 25.4177 129.919 11 107.302C9.44168 104.857 2.57108 71.9905 26.4347 64.3016C51.7898 64.3016 45.3267 105.155 102.5 95Z" fill="#77C6BC"/>
<path d="M150 75.3065C150 116.559 116.421 150 75 150C33.5786 150 0 116.558 0 75.3064C0 71.9999 2.07864 95.4999 43.5 95.4999C71.5 85.5407 99.5 19.5 150 75.3065Z" fill="#93E2D9"/>
<path d="M22.1309 101.492C23.3788 92.9685 25.7055 85.5712 29.111 79.3003C32.5165 73.0294 36.9051 68.175 42.2769 64.7372C47.6487 61.2993 53.8859 59.5477 60.9885 59.4822C65.0344 59.4449 68.8182 60.1539 72.34 61.609C75.8618 63.0641 79.741 65.7555 83.9778 69.6834C85.8314 71.4018 87.4439 72.8125 88.8153 73.9155C90.2317 75.0182 92.0862 75.5589 94.3788 75.5378C97.2109 75.5117 99.7946 74.4135 102.13 72.2433C104.51 70.0726 106.154 66.5039 107.062 61.5369L134.034 61.2884C132.698 69.7302 130.237 77.0875 126.652 83.36C123.111 89.6322 118.632 94.508 113.215 97.9876C107.842 101.467 101.739 103.238 94.9064 103.301C90.456 103.342 86.4491 102.552 82.8856 100.932C79.3221 99.3123 75.5761 96.7023 71.6474 93.1022C69.529 91.1383 67.8728 89.666 66.6787 88.6853C65.5296 87.7042 63.8088 87.2242 61.5161 87.2453C58.6841 87.2714 56.1004 88.3696 53.7651 90.5398C51.4298 92.71 49.8758 96.278 49.103 101.244L22.1309 101.492Z" fill="white"/>
<g filter="url(#filter0_bd_125_9)">
<path d="M24.7103 51.5455L25.6819 45.8182H48.4376L47.466 51.5455H39.591L36.216 72H29.2103L32.5853 51.5455H24.7103ZM44.8293 72L48.102 52.3636H54.9543L54.3406 56.0966H54.5452C55.1332 54.7159 55.8704 53.706 56.7568 53.0668C57.6432 52.4276 58.6105 52.108 59.6588 52.108C59.9656 52.108 60.2596 52.1335 60.5409 52.1847C60.8307 52.2273 61.1162 52.2869 61.3974 52.3636L60.3747 58.3977C60.0423 58.2699 59.629 58.1804 59.1346 58.1293C58.6403 58.0696 58.2014 58.0398 57.8179 58.0398C57.1361 58.0398 56.4969 58.1974 55.9003 58.5128C55.3122 58.8196 54.8094 59.2543 54.3918 59.8168C53.9827 60.3707 53.7099 61.0227 53.5736 61.7727L51.8861 72H44.8293ZM60.4386 72L63.7114 52.3636H70.7682L67.4954 72H60.4386ZM67.5466 50.3182C66.592 50.3182 65.8207 50.0028 65.2327 49.3722C64.6446 48.733 64.4273 47.9744 64.5807 47.0966C64.7341 46.2017 65.2028 45.4432 65.9869 44.821C66.771 44.1903 67.6403 43.875 68.5949 43.875C69.5579 43.875 70.325 44.1903 70.896 44.821C71.467 45.4432 71.6801 46.2017 71.5352 47.0966C71.3989 47.9744 70.9386 48.733 70.1545 49.3722C69.379 50.0028 68.5096 50.3182 67.5466 50.3182ZM69.9148 79.3636L74.4404 52.3636H81.4461L80.8836 55.7898H81.037C81.3949 55.125 81.8637 54.5156 82.4432 53.9616C83.0313 53.3991 83.7217 52.9517 84.5143 52.6193C85.3154 52.2784 86.2018 52.108 87.1734 52.108C88.4688 52.108 89.6407 52.4531 90.689 53.1435C91.7373 53.8338 92.5086 54.9205 93.0029 56.4034C93.4972 57.8864 93.5484 59.8125 93.1563 62.1818C92.7813 64.4489 92.1123 66.3281 91.1492 67.8196C90.1947 69.3111 89.0697 70.4233 87.7742 71.1562C86.4873 71.8892 85.1449 72.2557 83.7472 72.2557C82.8268 72.2557 82.0299 72.1065 81.3566 71.8082C80.6833 71.5014 80.1421 71.0881 79.733 70.5682C79.3239 70.0398 79.0427 69.4432 78.8893 68.7784H78.7359L76.9972 79.3636H69.9148ZM79.7074 62.1818C79.554 63.1364 79.5413 63.9631 79.6691 64.6619C79.8055 65.3523 80.0739 65.8892 80.4745 66.2727C80.8836 66.6477 81.412 66.8352 82.0597 66.8352C82.7074 66.8352 83.287 66.652 83.7984 66.2855C84.3097 65.9105 84.7444 65.3778 85.1023 64.6875C85.4603 63.9886 85.7245 63.1534 85.8949 62.1818C86.0484 61.2102 86.0611 60.3793 85.9333 59.6889C85.8055 58.9901 85.5455 58.4574 85.1535 58.0909C84.7614 57.7159 84.2415 57.5284 83.5938 57.5284C82.9461 57.5284 82.3538 57.7159 81.8168 58.0909C81.2884 58.4574 80.841 58.9901 80.4745 59.6889C80.1165 60.3793 79.8609 61.2102 79.7074 62.1818Z" fill="#46BFDA"/>
</g>
<g filter="url(#filter1_bd_125_9)">
<path d="M57.5568 80.8182L59.858 99.2784H60.0625L68.5 80.8182H76.5284L63.5398 107H53.8239L49.5284 80.8182H57.5568ZM74.8058 107L78.0785 87.3636H85.1353L81.8626 107H74.8058ZM81.9137 85.3182C80.9592 85.3182 80.1879 85.0028 79.5998 84.3722C79.0117 83.733 78.7944 82.9744 78.9478 82.0966C79.1012 81.2017 79.57 80.4432 80.354 79.821C81.1381 79.1903 82.0075 78.875 82.962 78.875C83.9251 78.875 84.6921 79.1903 85.2631 79.821C85.8342 80.4432 86.0472 81.2017 85.9023 82.0966C85.766 82.9744 85.3058 83.733 84.5217 84.3722C83.7461 85.0028 82.8768 85.3182 81.9137 85.3182ZM85.3558 107L89.7024 80.8182H96.7592L95.1229 90.7898H95.2251C95.5831 90.125 96.0561 89.5156 96.6442 88.9616C97.2322 88.3991 97.9226 87.9517 98.7152 87.6193C99.5078 87.2784 100.39 87.108 101.362 87.108C102.657 87.108 103.829 87.4531 104.877 88.1435C105.934 88.8338 106.705 89.9205 107.191 91.4034C107.685 92.8864 107.737 94.8125 107.344 97.1818C106.969 99.4489 106.305 101.328 105.35 102.82C104.396 104.311 103.271 105.423 101.975 106.156C100.68 106.889 99.3331 107.256 97.9354 107.256C97.0149 107.256 96.218 107.107 95.5447 106.808C94.88 106.501 94.3388 106.088 93.9212 105.568C93.5121 105.04 93.2308 104.443 93.0774 103.778H92.8729L92.3615 107H85.3558ZM93.8956 97.1818C93.7422 98.1364 93.7337 98.9631 93.87 99.6619C94.0064 100.352 94.2749 100.889 94.6754 101.273C95.076 101.648 95.6001 101.835 96.2479 101.835C96.8956 101.835 97.4794 101.652 97.9993 101.286C98.5192 100.911 98.9581 100.378 99.3161 99.6875C99.674 98.9886 99.9297 98.1534 100.083 97.1818C100.237 96.2102 100.249 95.3793 100.121 94.6889C99.9936 93.9901 99.7337 93.4574 99.3416 93.0909C98.9496 92.7159 98.4297 92.5284 97.782 92.5284C97.1342 92.5284 96.5462 92.7159 96.0178 93.0909C95.4893 93.4574 95.0419 93.9901 94.6754 94.6889C94.3089 95.3793 94.049 96.2102 93.8956 97.1818ZM118.019 107.358C115.923 107.358 114.184 106.957 112.803 106.156C111.423 105.347 110.451 104.187 109.888 102.679C109.326 101.162 109.224 99.3466 109.582 97.233C109.923 95.2045 110.626 93.4318 111.691 91.9148C112.765 90.3977 114.116 89.2173 115.744 88.3736C117.38 87.5298 119.212 87.108 121.241 87.108C122.724 87.108 124.023 87.3381 125.14 87.7983C126.265 88.2585 127.181 88.9276 127.888 89.8054C128.596 90.6832 129.073 91.7443 129.32 92.9886C129.576 94.2244 129.576 95.6222 129.32 97.1818L129.065 98.8182H111.525L112.138 94.9318H123.184C123.269 94.3693 123.214 93.875 123.018 93.4489C122.83 93.0142 122.528 92.6776 122.11 92.4389C121.701 92.1918 121.207 92.0682 120.627 92.0682C120.048 92.0682 119.502 92.1918 118.991 92.4389C118.488 92.6861 118.058 93.0312 117.7 93.4744C117.35 93.9176 117.116 94.4375 116.996 95.0341L116.229 99.125C116.127 99.7557 116.165 100.318 116.344 100.812C116.523 101.307 116.835 101.695 117.278 101.976C117.721 102.257 118.292 102.398 118.991 102.398C119.468 102.398 119.92 102.334 120.346 102.206C120.781 102.07 121.164 101.874 121.496 101.618C121.837 101.354 122.11 101.034 122.315 100.659H128.758C128.298 102.023 127.569 103.207 126.572 104.213C125.583 105.21 124.364 105.986 122.915 106.54C121.475 107.085 119.843 107.358 118.019 107.358Z" fill="#46BFDA"/>
</g>
<defs>
<filter id="filter0_bd_125_9" x="20.7103" y="39.875" width="77.0341" height="47.4886" filterUnits="userSpaceOnUse" color-interpolation-filters="sRGB">
<feFlood flood-opacity="0" result="BackgroundImageFix"/>
<feGaussianBlur in="BackgroundImageFix" stdDeviation="2"/>
<feComposite in2="SourceAlpha" operator="in" result="effect1_backgroundBlur_125_9"/>
<feColorMatrix in="SourceAlpha" type="matrix" values="0 0 0 0 0 0 0 0 0 0 0 0 0 0 0 0 0 0 127 0" result="hardAlpha"/>
<feOffset dy="4"/>
<feGaussianBlur stdDeviation="2"/>
<feComposite in2="hardAlpha" operator="out"/>
<feColorMatrix type="matrix" values="0 0 0 0 0 0 0 0 0 0 0 0 0 0 0 0 0 0 0.25 0"/>
<feBlend mode="normal" in2="effect1_backgroundBlur_125_9" result="effect2_dropShadow_125_9"/>
<feBlend mode="normal" in="SourceGraphic" in2="effect2_dropShadow_125_9" result="shape"/>
</filter>
<filter id="filter1_bd_125_9" x="45.5284" y="74.875" width="88.1755" height="40.483" filterUnits="userSpaceOnUse" color-interpolation-filters="sRGB">
<feFlood flood-opacity="0" result="BackgroundImageFix"/>
<feGaussianBlur in="BackgroundImageFix" stdDeviation="2"/>
<feComposite in2="SourceAlpha" operator="in" result="effect1_backgroundBlur_125_9"/>
<feColorMatrix in="SourceAlpha" type="matrix" values="0 0 0 0 0 0 0 0 0 0 0 0 0 0 0 0 0 0 127 0" result="hardAlpha"/>
<feOffset dy="4"/>
<feGaussianBlur stdDeviation="2"/>
<feComposite in2="hardAlpha" operator="out"/>
<feColorMatrix type="matrix" values="0 0 0 0 0 0 0 0 0 0 0 0 0 0 0 0 0 0 0.25 0"/>
<feBlend mode="normal" in2="effect1_backgroundBlur_125_9" result="effect2_dropShadow_125_9"/>
<feBlend mode="normal" in="SourceGraphic" in2="effect2_dropShadow_125_9" result="shape"/>
</filter>
</defs>
</svg>
