<svg width="316" height="316" viewBox="0 0 316 316" fill="none" xmlns="http://www.w3.org/2000/svg">
<g filter="url(#filter0_d_148_15)">
<path d="M168.392 54L253.263 201C257.882 209 252.108 219 242.871 219H73.1295C63.8919 219 58.1184 209 62.7372 201L147.608 54C152.227 46 163.773 46 168.392 54Z" stroke="#93E2D9" stroke-width="36" shape-rendering="crispEdges"/>
</g>
<g filter="url(#filter1_dd_148_15)">
<path d="M166 98.9091L165.091 165.818H154.545L153.636 98.9091H166ZM159.818 192.727C157.576 192.727 155.652 191.924 154.045 190.318C152.439 188.712 151.636 186.788 151.636 184.545C151.636 182.303 152.439 180.379 154.045 178.773C155.652 177.167 157.576 176.364 159.818 176.364C162.061 176.364 163.985 177.167 165.591 178.773C167.197 180.379 168 182.303 168 184.545C168 186.03 167.621 187.394 166.864 188.636C166.136 189.879 165.152 190.879 163.909 191.636C162.697 192.364 161.333 192.727 159.818 192.727Z" fill="#93E2D9"/>
</g>
<defs>
<filter id="filter0_d_148_15" x="39.0848" y="30" width="237.831" height="215" filterUnits="userSpaceOnUse" color-interpolation-filters="sRGB">
<feFlood flood-opacity="0" result="BackgroundImageFix"/>
<feColorMatrix in="SourceAlpha" type="matrix" values="0 0 0 0 0 0 0 0 0 0 0 0 0 0 0 0 0 0 127 0" result="hardAlpha"/>
<feOffset dy="4"/>
<feGaussianBlur stdDeviation="2"/>
<feComposite in2="hardAlpha" operator="out"/>
<feColorMatrix type="matrix" values="0 0 0 0 0 0 0 0 0 0 0 0 0 0 0 0 0 0 0.25 0"/>
<feBlend mode="normal" in2="BackgroundImageFix" result="effect1_dropShadow_148_15"/>
<feBlend mode="normal" in="SourceGraphic" in2="effect1_dropShadow_148_15" result="shape"/>
</filter>
<filter id="filter1_dd_148_15" x="147.636" y="98.9092" width="24.3636" height="101.818" filterUnits="userSpaceOnUse" color-interpolation-filters="sRGB">
<feFlood flood-opacity="0" result="BackgroundImageFix"/>
<feColorMatrix in="SourceAlpha" type="matrix" values="0 0 0 0 0 0 0 0 0 0 0 0 0 0 0 0 0 0 127 0" result="hardAlpha"/>
<feOffset dy="4"/>
<feGaussianBlur stdDeviation="2"/>
<feComposite in2="hardAlpha" operator="out"/>
<feColorMatrix type="matrix" values="0 0 0 0 0 0 0 0 0 0 0 0 0 0 0 0 0 0 0.25 0"/>
<feBlend mode="normal" in2="BackgroundImageFix" result="effect1_dropShadow_148_15"/>
<feColorMatrix in="SourceAlpha" type="matrix" values="0 0 0 0 0 0 0 0 0 0 0 0 0 0 0 0 0 0 127 0" result="hardAlpha"/>
<feOffset dy="4"/>
<feGaussianBlur stdDeviation="2"/>
<feComposite in2="hardAlpha" operator="out"/>
<feColorMatrix type="matrix" values="0 0 0 0 0 0 0 0 0 0 0 0 0 0 0 0 0 0 0.25 0"/>
<feBlend mode="normal" in2="effect1_dropShadow_148_15" result="effect2_dropShadow_148_15"/>
<feBlend mode="normal" in="SourceGraphic" in2="effect2_dropShadow_148_15" result="shape"/>
</filter>
</defs>
</svg>
